<svg width="329" height="168" viewBox="0 0 329 168" fill="none" xmlns="http://www.w3.org/2000/svg">
<path d="M160.838 67.8031C162.002 66.9738 163.434 66.4139 164.995 66.22C167.688 65.8862 172.663 66.3923 178.166 72.4662C174.558 66.2846 167.871 58.1323 162.648 54.6538C162.4 54.4923 162.335 54.1585 162.508 53.9108C162.669 53.6631 163.003 53.5985 163.251 53.76C168.818 57.4646 176.012 66.3708 179.598 72.7892C179.695 70.6785 180.309 68.32 181.429 65.7785C182.442 63.4523 183.303 60.4477 183.454 57.4323C183.551 55.4938 183.357 53.5662 182.732 51.8108C180.611 45.8231 174.3 39.8677 168.388 38.2523C164.177 37.1108 156.272 36.7877 150.532 47.5138C150.091 48.3538 148.648 49.0108 146.322 50.0231C144.555 50.7877 142.542 51.6492 141.842 52.4892C141.497 52.8877 141.26 53.5231 141.152 54.2877C141.185 54.3308 141.217 54.3738 141.238 54.4277C142.175 56.7646 143.931 58.4446 146.343 59.2738C149.509 60.3723 153.149 59.8015 155.098 58.6708C156.369 57.9277 156.412 55.2354 156.455 52.3815C156.488 50.1954 156.52 47.9338 157.091 46.0708C157.985 43.1308 159.998 41.3 163.445 40.3092C163.725 40.2338 164.026 40.3954 164.112 40.6862C164.188 40.9662 164.026 41.2677 163.735 41.3538C160.645 42.2369 158.911 43.7877 158.114 46.3831C157.597 48.1062 157.565 50.2923 157.532 52.3923C157.489 55.5692 157.446 58.5523 155.637 59.6077C154.312 60.3723 152.255 60.9431 150.005 60.9431C148.702 60.9431 147.323 60.7492 145.988 60.2969C143.931 59.5754 142.294 58.3262 141.174 56.6138C141.174 56.7323 141.195 56.8508 141.217 56.9692C141.475 58.4446 142.477 62.1277 146.354 64.4C148.648 65.7354 150.931 66.0154 153.58 66.3385C155.669 66.5862 158.017 66.8662 160.698 67.7277C160.752 67.7492 160.795 67.7708 160.838 67.8031Z" fill="#E54D2E" stroke="black" stroke-width="0.00107692"/>
<path d="M223.677 121.025C223.526 120.96 223.386 120.906 223.235 120.863C223.106 120.82 222.966 120.777 222.826 120.745C221.125 120.378 219.531 121.143 218.066 123.017C217.447 123.732 216.628 124.83 216.187 125.541C214.808 127.738 213.134 128.735 211.303 129.316L211.055 129.402C210.291 129.65 209.429 129.93 208.126 129.93C207.168 129.93 205.962 129.779 204.4 129.337C201.848 128.627 198.692 125.644 199.371 121.864C199.425 121.573 199.715 121.379 200.006 121.433C200.297 121.487 200.491 121.767 200.437 122.057C200.286 122.854 200.362 123.619 200.588 124.319C202.645 123.5 204.002 122.682 205.746 121.207C211.982 115.94 214.792 109.328 214.598 100.411C214.426 92.3235 211.163 86.9389 204.885 84.3758C200.114 82.4266 192.317 81.4682 186.695 82.1251C186.652 82.1358 186.609 82.1466 186.555 82.1466C186.545 82.1466 186.545 82.1466 186.534 82.1358C186.448 82.1358 186.362 82.1143 186.286 82.0605C186.243 82.0605 186.211 82.0389 186.178 82.0066C186.049 81.8882 185.575 81.3712 185.069 79.3789C184.962 78.9697 182.28 68.9112 188.989 64.7328C193.642 61.8466 197.702 63.6558 200.663 64.9805C201.988 65.5728 203.151 66.0897 204.002 66.0574C204.648 66.0466 204.885 65.7451 205.003 65.5082C205.714 64.1835 204.658 60.662 203.291 58.5082C202.709 57.6143 202.343 56.5589 201.966 55.4497C201.18 53.1666 200.286 50.5712 197.152 48.4605C193.071 45.7143 186.835 45.3805 183.238 50.1728C183.422 50.5928 183.594 51.0235 183.745 51.4435C184.186 52.6928 184.423 53.9743 184.52 55.2343C186.62 52.3374 190.594 51.4005 193.082 51.9605C193.372 52.0251 193.555 52.3158 193.491 52.6066C193.426 52.8974 193.135 53.0805 192.845 53.0158C190.249 52.4235 185.812 53.7051 184.531 57.5389C184.326 61.4805 182.969 64.9158 182.409 66.2082C180.869 69.6974 180.331 72.8097 180.837 75.2758C180.977 75.5666 181.095 75.8574 181.203 76.1266C181.311 76.4066 181.171 76.7189 180.891 76.8266C180.869 76.8374 180.848 76.8374 180.826 76.8374C180.794 76.8697 180.762 76.8805 180.729 76.8912C180.675 76.902 180.622 76.9128 180.568 76.9128C180.342 76.9128 180.126 76.7728 180.051 76.5466C180.051 76.5358 180.051 76.5358 180.04 76.5251C175.474 70.042 170.046 66.682 165.125 67.2851C162.422 67.6189 160.149 69.1912 159.342 71.302C158.631 73.1543 158.771 75.082 159.729 76.5897C160.645 78.0112 162.195 78.9051 163.994 79.0235C166.18 79.1635 167.838 78.4958 169.432 77.8605C171.328 77.1066 173.277 76.3205 175.926 76.9558C179.728 77.8605 181.182 81.2743 181.612 82.5774C181.806 82.4805 181.968 82.3943 182.086 82.3405C182.355 82.2005 182.678 82.3082 182.808 82.5774C182.948 82.8466 182.829 83.1697 182.571 83.2989C181.257 83.9558 174.515 87.4343 170.983 91.8605C166.266 97.762 165.243 104.676 168.022 111.848C170.811 119.042 176.68 124.233 184.122 126.064C187.094 126.796 191.283 126.742 195.235 125.945C195.612 126.193 195.978 126.484 196.355 126.807C196.549 126.979 196.754 127.162 196.969 127.345C198.423 128.627 200.071 130.08 203.043 131.168C204.228 131.599 205.714 131.965 207.394 131.965C209.246 131.965 211.335 131.513 213.5 130.231C215.212 129.24 216.526 127.819 217.528 125.891C219.229 122.617 220.995 121.293 222.902 121.885C223.009 121.917 223.128 121.96 223.246 122.014C223.526 122.133 223.838 122.014 223.957 121.734C224.075 121.466 223.946 121.143 223.677 121.025Z" fill="#E54D2E" stroke="black" stroke-width="0.00107692"/>
<path d="M3.90234 81.5254H17.877C19.9863 81.5254 21.8145 81.748 23.3613 82.1934C24.9082 82.627 26.1914 83.2598 27.2109 84.0918C28.2305 84.9238 28.9863 85.9375 29.4785 87.1328C29.9824 88.3281 30.2344 89.6816 30.2344 91.1934C30.2344 92.2129 30.1113 93.1855 29.8652 94.1113C29.6191 95.0254 29.2383 95.8691 28.7227 96.6426C28.2188 97.416 27.5801 98.1074 26.8066 98.7168C26.0332 99.3145 25.125 99.8125 24.082 100.211L30.0586 109H23.2383L18.0703 101.195H17.9121L9.47461 101.178V109H3.90234V81.5254ZM18.0176 96.3613C19.0723 96.3613 19.9922 96.2383 20.7773 95.9922C21.5742 95.7461 22.2363 95.4004 22.7637 94.9551C23.3027 94.5098 23.7012 93.9707 23.959 93.3379C24.2285 92.6934 24.3633 91.9785 24.3633 91.1934C24.3633 89.6582 23.8359 88.4746 22.7812 87.6426C21.7266 86.7988 20.1387 86.377 18.0176 86.377H9.47461V96.3613H18.0176ZM35.209 98.5586C35.209 97.1523 35.4961 95.8105 36.0703 94.5332C36.6445 93.2441 37.4707 92.1074 38.5488 91.123C39.627 90.1387 40.9453 89.3535 42.5039 88.7676C44.0742 88.1816 45.8555 87.8887 47.8477 87.8887C49.8281 87.8887 51.6094 88.1875 53.1914 88.7852C54.7852 89.3711 56.1328 90.1797 57.2344 91.2109C58.3477 92.2422 59.1973 93.4551 59.7832 94.8496C60.3809 96.2441 60.6797 97.7383 60.6797 99.332C60.6797 99.5312 60.6738 99.748 60.6621 99.9824C60.6621 100.205 60.6504 100.41 60.627 100.598H41.0098C41.2324 101.219 41.5898 101.787 42.082 102.303C42.5859 102.818 43.2129 103.264 43.9629 103.639C44.7129 104.014 45.5801 104.307 46.5645 104.518C47.5488 104.717 48.6387 104.816 49.834 104.816C51.0293 104.816 52.2188 104.693 53.4023 104.447C54.5859 104.189 55.7168 103.867 56.7949 103.48L58.5527 107.453C57.873 107.77 57.1816 108.051 56.4785 108.297C55.7871 108.531 55.0605 108.73 54.2988 108.895C53.5488 109.047 52.7578 109.164 51.9258 109.246C51.1055 109.328 50.2383 109.369 49.3242 109.369C46.9922 109.369 44.9473 109.088 43.1895 108.525C41.4316 107.963 39.9609 107.195 38.7773 106.223C37.5938 105.25 36.7031 104.107 36.1055 102.795C35.5078 101.482 35.209 100.07 35.209 98.5586ZM55.1602 96.5371C54.9727 95.9629 54.6797 95.4297 54.2812 94.9375C53.8945 94.4336 53.4082 94 52.8223 93.6367C52.2363 93.2617 51.5566 92.9688 50.7832 92.7578C50.0098 92.5469 49.1602 92.4414 48.2344 92.4414C47.25 92.4414 46.3535 92.5527 45.5449 92.7754C44.7363 92.998 44.0273 93.2969 43.418 93.6719C42.8086 94.0469 42.2988 94.4805 41.8887 94.9727C41.4902 95.4648 41.1973 95.9863 41.0098 96.5371H55.1602ZM65.0391 98.6816C65.0391 97.1582 65.3145 95.7402 65.8652 94.4277C66.4277 93.1035 67.2422 91.9609 68.3086 91C69.3867 90.0273 70.6992 89.2656 72.2461 88.7148C73.8047 88.1641 75.5801 87.8887 77.5723 87.8887C78.4395 87.8887 79.3125 87.9414 80.1914 88.0469C81.0703 88.1523 81.9141 88.3047 82.7227 88.5039C83.543 88.6914 84.3105 88.9199 85.0254 89.1895C85.7402 89.4473 86.3613 89.7344 86.8887 90.0508L84.4805 93.9707C83.3438 93.4434 82.2656 93.0566 81.2461 92.8105C80.2383 92.5645 79.2129 92.4414 78.1699 92.4414C76.9746 92.4414 75.9023 92.5996 74.9531 92.916C74.0039 93.2207 73.1953 93.6543 72.5273 94.2168C71.8711 94.7676 71.3672 95.4238 71.0156 96.1855C70.6758 96.9355 70.5059 97.7559 70.5059 98.6465C70.5059 99.5371 70.6875 100.363 71.0508 101.125C71.4258 101.875 71.9473 102.525 72.6152 103.076C73.2949 103.615 74.1094 104.043 75.0586 104.359C76.0195 104.664 77.0859 104.816 78.2578 104.816C79.5469 104.816 80.7598 104.635 81.8965 104.271C83.0449 103.908 84.1113 103.422 85.0957 102.812L87.5039 106.732C86.8828 107.107 86.209 107.459 85.4824 107.787C84.7559 108.104 83.9766 108.379 83.1445 108.613C82.3242 108.848 81.457 109.029 80.543 109.158C79.6406 109.299 78.7031 109.369 77.7305 109.369C75.75 109.369 73.9746 109.1 72.4043 108.561C70.834 108.021 69.5039 107.277 68.4141 106.328C67.3242 105.367 66.4863 104.236 65.9004 102.936C65.3262 101.635 65.0391 100.217 65.0391 98.6816ZM95.8535 85.4277C95.3379 85.4277 94.8691 85.3574 94.4473 85.2168C94.0371 85.0645 93.6855 84.8652 93.3926 84.6191C93.0996 84.3613 92.8711 84.0684 92.707 83.7402C92.5547 83.4004 92.4785 83.043 92.4785 82.668C92.4785 82.2812 92.5547 81.9238 92.707 81.5957C92.8711 81.2559 93.0996 80.9629 93.3926 80.7168C93.6855 80.4707 94.0371 80.2773 94.4473 80.1367C94.8691 79.9844 95.3379 79.9082 95.8535 79.9082C96.3809 79.9082 96.8496 79.9844 97.2598 80.1367C97.6816 80.2773 98.0391 80.4707 98.332 80.7168C98.625 80.9629 98.8477 81.2559 99 81.5957C99.1641 81.9238 99.2461 82.2812 99.2461 82.668C99.2461 83.043 99.1641 83.4004 99 83.7402C98.8477 84.0684 98.625 84.3613 98.332 84.6191C98.0391 84.8652 97.6816 85.0645 97.2598 85.2168C96.8496 85.3574 96.3809 85.4277 95.8535 85.4277ZM93.252 88.2578H98.4551V109H93.252V88.2578ZM110.197 117.473H104.994V88.2578H110.197V90.209C110.654 89.8926 111.193 89.5938 111.814 89.3125C112.436 89.0312 113.104 88.7852 113.818 88.5742C114.533 88.3633 115.271 88.1992 116.033 88.082C116.795 87.9531 117.557 87.8887 118.318 87.8887C120.076 87.8887 121.688 88.1465 123.152 88.6621C124.629 89.1777 125.895 89.9043 126.949 90.8418C128.004 91.7793 128.824 92.9043 129.41 94.2168C130.008 95.5176 130.307 96.959 130.307 98.541C130.307 100.193 129.996 101.688 129.375 103.023C128.754 104.348 127.893 105.484 126.791 106.434C125.701 107.371 124.4 108.098 122.889 108.613C121.389 109.117 119.76 109.369 118.002 109.369C117.252 109.369 116.508 109.322 115.77 109.229C115.043 109.135 114.34 109.006 113.66 108.842C112.992 108.678 112.359 108.484 111.762 108.262C111.176 108.027 110.654 107.775 110.197 107.506V117.473ZM110.197 102.479C110.725 102.9 111.281 103.258 111.867 103.551C112.453 103.844 113.051 104.084 113.66 104.271C114.27 104.459 114.885 104.6 115.506 104.693C116.127 104.775 116.73 104.816 117.316 104.816C118.512 104.816 119.572 104.658 120.498 104.342C121.436 104.014 122.221 103.568 122.854 103.006C123.498 102.443 123.99 101.781 124.33 101.02C124.67 100.258 124.84 99.4316 124.84 98.541C124.84 97.709 124.67 96.9238 124.33 96.1855C124.002 95.4473 123.521 94.8027 122.889 94.252C122.268 93.6895 121.512 93.25 120.621 92.9336C119.742 92.6055 118.752 92.4414 117.65 92.4414C116.947 92.4414 116.244 92.5117 115.541 92.6523C114.838 92.7812 114.158 92.9688 113.502 93.2148C112.857 93.4609 112.248 93.7598 111.674 94.1113C111.111 94.4629 110.619 94.8555 110.197 95.2891V102.479ZM134.244 98.5586C134.244 97.1523 134.531 95.8105 135.105 94.5332C135.68 93.2441 136.506 92.1074 137.584 91.123C138.662 90.1387 139.98 89.3535 141.539 88.7676C143.109 88.1816 144.891 87.8887 146.883 87.8887C148.863 87.8887 150.645 88.1875 152.227 88.7852C153.82 89.3711 155.168 90.1797 156.27 91.2109C157.383 92.2422 158.232 93.4551 158.818 94.8496C159.416 96.2441 159.715 97.7383 159.715 99.332C159.715 99.5312 159.709 99.748 159.697 99.9824C159.697 100.205 159.686 100.41 159.662 100.598H140.045C140.268 101.219 140.625 101.787 141.117 102.303C141.621 102.818 142.248 103.264 142.998 103.639C143.748 104.014 144.615 104.307 145.6 104.518C146.584 104.717 147.674 104.816 148.869 104.816C150.064 104.816 151.254 104.693 152.438 104.447C153.621 104.189 154.752 103.867 155.83 103.48L157.588 107.453C156.908 107.77 156.217 108.051 155.514 108.297C154.822 108.531 154.096 108.73 153.334 108.895C152.584 109.047 151.793 109.164 150.961 109.246C150.141 109.328 149.273 109.369 148.359 109.369C146.027 109.369 143.982 109.088 142.225 108.525C140.467 107.963 138.996 107.195 137.812 106.223C136.629 105.25 135.738 104.107 135.141 102.795C134.543 101.482 134.244 100.07 134.244 98.5586ZM154.195 96.5371C154.008 95.9629 153.715 95.4297 153.316 94.9375C152.93 94.4336 152.443 94 151.857 93.6367C151.271 93.2617 150.592 92.9688 149.818 92.7578C149.045 92.5469 148.195 92.4414 147.27 92.4414C146.285 92.4414 145.389 92.5527 144.58 92.7754C143.771 92.998 143.062 93.2969 142.453 93.6719C141.844 94.0469 141.334 94.4805 140.924 94.9727C140.525 95.4648 140.232 95.9863 140.045 96.5371H154.195Z" fill="#E54D2E"/>
<path d="M219.902 82.5254H233.877C235.986 82.5254 237.814 82.748 239.361 83.1934C240.908 83.627 242.191 84.2598 243.211 85.0918C244.23 85.9238 244.986 86.9375 245.479 88.1328C245.982 89.3281 246.234 90.6816 246.234 92.1934C246.234 93.2129 246.111 94.1855 245.865 95.1113C245.619 96.0254 245.238 96.8691 244.723 97.6426C244.219 98.416 243.58 99.1074 242.807 99.7168C242.033 100.314 241.125 100.812 240.082 101.211L246.059 110H239.238L234.07 102.195H233.912L225.475 102.178V110H219.902V82.5254ZM234.018 97.3613C235.072 97.3613 235.992 97.2383 236.777 96.9922C237.574 96.7461 238.236 96.4004 238.764 95.9551C239.303 95.5098 239.701 94.9707 239.959 94.3379C240.229 93.6934 240.363 92.9785 240.363 92.1934C240.363 90.6582 239.836 89.4746 238.781 88.6426C237.727 87.7988 236.139 87.377 234.018 87.377H225.475V97.3613H234.018ZM250.945 99.6289C250.945 98.1406 251.244 96.7461 251.842 95.4453C252.451 94.1445 253.312 93.0078 254.426 92.0352C255.551 91.0625 256.904 90.2949 258.486 89.7324C260.08 89.1699 261.867 88.8887 263.848 88.8887C265.828 88.8887 267.609 89.1699 269.191 89.7324C270.785 90.2949 272.139 91.0625 273.252 92.0352C274.377 93.0078 275.238 94.1445 275.836 95.4453C276.445 96.7461 276.75 98.1406 276.75 99.6289C276.75 101.117 276.445 102.512 275.836 103.812C275.238 105.113 274.377 106.25 273.252 107.223C272.139 108.195 270.785 108.963 269.191 109.525C267.609 110.088 265.828 110.369 263.848 110.369C261.867 110.369 260.08 110.088 258.486 109.525C256.904 108.963 255.551 108.195 254.426 107.223C253.312 106.25 252.451 105.113 251.842 103.812C251.244 102.512 250.945 101.117 250.945 99.6289ZM256.412 99.6289C256.412 100.461 256.576 101.252 256.904 102.002C257.244 102.74 257.73 103.396 258.363 103.971C259.008 104.533 259.787 104.984 260.701 105.324C261.627 105.652 262.676 105.816 263.848 105.816C265.02 105.816 266.062 105.652 266.977 105.324C267.902 104.984 268.682 104.533 269.314 103.971C269.959 103.396 270.445 102.74 270.773 102.002C271.113 101.252 271.283 100.461 271.283 99.6289C271.283 98.7969 271.113 98.0059 270.773 97.2559C270.445 96.5059 269.959 95.8496 269.314 95.2871C268.682 94.7129 267.902 94.2617 266.977 93.9336C266.062 93.5938 265.02 93.4238 263.848 93.4238C262.676 93.4238 261.627 93.5938 260.701 93.9336C259.787 94.2617 259.008 94.7129 258.363 95.2871C257.73 95.8496 257.244 96.5059 256.904 97.2559C256.576 98.0059 256.412 98.7969 256.412 99.6289ZM280.758 99.6289C280.758 98.1406 281.057 96.7461 281.654 95.4453C282.264 94.1445 283.125 93.0078 284.238 92.0352C285.363 91.0625 286.717 90.2949 288.299 89.7324C289.893 89.1699 291.68 88.8887 293.66 88.8887C295.641 88.8887 297.422 89.1699 299.004 89.7324C300.598 90.2949 301.951 91.0625 303.064 92.0352C304.189 93.0078 305.051 94.1445 305.648 95.4453C306.258 96.7461 306.562 98.1406 306.562 99.6289C306.562 101.117 306.258 102.512 305.648 103.812C305.051 105.113 304.189 106.25 303.064 107.223C301.951 108.195 300.598 108.963 299.004 109.525C297.422 110.088 295.641 110.369 293.66 110.369C291.68 110.369 289.893 110.088 288.299 109.525C286.717 108.963 285.363 108.195 284.238 107.223C283.125 106.25 282.264 105.113 281.654 103.812C281.057 102.512 280.758 101.117 280.758 99.6289ZM286.225 99.6289C286.225 100.461 286.389 101.252 286.717 102.002C287.057 102.74 287.543 103.396 288.176 103.971C288.82 104.533 289.6 104.984 290.514 105.324C291.439 105.652 292.488 105.816 293.66 105.816C294.832 105.816 295.875 105.652 296.789 105.324C297.715 104.984 298.494 104.533 299.127 103.971C299.771 103.396 300.258 102.74 300.586 102.002C300.926 101.252 301.096 100.461 301.096 99.6289C301.096 98.7969 300.926 98.0059 300.586 97.2559C300.258 96.5059 299.771 95.8496 299.127 95.2871C298.494 94.7129 297.715 94.2617 296.789 93.9336C295.875 93.5938 294.832 93.4238 293.66 93.4238C292.488 93.4238 291.439 93.5938 290.514 93.9336C289.6 94.2617 288.82 94.7129 288.176 95.2871C287.543 95.8496 287.057 96.5059 286.717 97.2559C286.389 98.0059 286.225 98.7969 286.225 99.6289ZM314.947 93.1602H309.938V89.2578H314.947V82.8066H320.15V89.2578H325.16V93.1602H320.15V110H314.947V93.1602Z" fill="#E54D2E"/>
</svg>
